<?xml version="1.0" standalone="no"?>
<!DOCTYPE svg PUBLIC "-//W3C//DTD SVG 20010904//EN"
 "http://www.w3.org/TR/2001/REC-SVG-20010904/DTD/svg10.dtd">
<svg version="1.0" xmlns="http://www.w3.org/2000/svg"
 width="261.000000pt" height="275.000000pt" viewBox="0 0 261.000000 275.000000"
 preserveAspectRatio="xMidYMid meet">

<g transform="translate(0.000000,275.000000) scale(0.100000,-0.100000)"
fill="#000000" stroke="none">
<path d="M1445 2404 c-264 -59 -493 -225 -609 -444 -53 -100 -74 -165 -91
-288 -33 -229 12 -419 146 -619 55 -81 85 -108 46 -42 -75 128 -105 329 -73
485 44 220 177 411 374 538 164 107 290 140 497 134 118 -4 152 -9 220 -32 89
-30 164 -70 241 -126 l50 -38 52 40 52 40 -21 29 c-37 53 -144 155 -205 196
-84 57 -130 79 -231 109 -113 34 -336 43 -448 18z"/>
<path d="M409 2148 c-135 -162 -233 -352 -276 -540 -44 -197 -32 -444 32 -643
144 -442 527 -773 972 -840 117 -18 217 -19 353 -4 152 17 162 24 32 24 -200
0 -384 44 -567 136 -359 181 -622 523 -706 920 -28 135 -31 344 -6 472 33 166
108 356 187 472 58 87 51 88 -21 3z"/>
<path d="M465 1930 c-14 -27 -21 -59 -10 -49 8 9 35 79 30 79 -2 0 -11 -13
-20 -30z"/>
</g>
</svg>
